<svg width="116" height="54" viewBox="0 0 116 54" fill="none" xmlns="http://www.w3.org/2000/svg">
<path d="M20.8496 53.125H81.4453C84.6029 53.125 87.5896 52.8646 90.4054 52.3437C93.2214 51.8229 95.6547 50.5371 97.7054 48.4863C99.756 46.403 101.034 43.9616 101.538 41.1621C102.043 38.3626 102.295 35.4004 102.295 32.2754V20.8496C102.295 17.7246 102.043 14.7624 101.538 11.9629C101.034 9.16343 99.756 6.7383 97.7054 4.6875C95.6547 2.60417 93.2214 1.30207 90.4054 0.7812C87.5896 0.2604 84.6029 0 81.4453 0H20.8496C17.7246 0 14.7542 0.2604 11.9385 0.7812C9.12275 1.30207 6.67321 2.60417 4.58988 4.6875C2.53908 6.7383 1.26141 9.16343 0.75688 11.9629C0.252293 14.7624 0 17.7246 0 20.8496V32.2754C0 35.4004 0.252293 38.3626 0.75688 41.1621C1.26141 43.9616 2.53908 46.403 4.58988 48.4863C6.67321 50.5371 9.12275 51.8229 11.9385 52.3437C14.7542 52.8646 17.7246 53.125 20.8496 53.125ZM19.7754 46.0937C17.985 46.0937 16.1458 45.9228 14.2578 45.581C12.3698 45.2393 10.8561 44.4987 9.71678 43.3594C8.57745 42.1875 7.84505 40.6739 7.51958 38.8184C7.19405 36.9629 7.03128 35.14 7.03128 33.3496V19.8242C7.03128 18.0339 7.19405 16.2028 7.51958 14.331C7.84505 12.4593 8.57745 10.9375 9.71678 9.7656C10.8561 8.62626 12.3698 7.89386 14.2578 7.5684C16.1458 7.24286 18.0013 7.0801 19.8242 7.0801H82.5196C84.3099 7.0801 86.1491 7.24286 88.0371 7.5684C89.9253 7.89386 91.4391 8.62626 92.5784 9.7656C93.7177 10.9375 94.45 12.4593 94.7754 14.331C95.1007 16.2028 95.2634 18.0339 95.2634 19.8242V33.3496C95.2634 35.14 95.1007 36.9629 94.7754 38.8184C94.45 40.6739 93.7177 42.1875 92.5784 43.3594C91.4391 44.4987 89.9253 45.2393 88.0371 45.581C86.1491 45.9228 84.3099 46.0937 82.5196 46.0937H19.7754ZM108.007 36.8164C109.049 36.7513 110.14 36.2874 111.279 35.4248C112.419 34.5622 113.379 33.374 114.16 31.8603C114.942 30.3466 115.332 28.5807 115.332 26.5625C115.332 24.5443 114.942 22.7783 114.16 21.2646C113.379 19.7509 112.419 18.5628 111.279 17.7002C110.14 16.8375 109.049 16.3737 108.007 16.3086V36.8164Z" fill="#E5E5E5"/>
<path d="M17.334 41.3086H65.2832C67.334 41.3086 68.7663 40.9017 69.5801 40.0879C70.3939 39.2741 70.8008 37.8581 70.8008 35.8398V17.2852C70.8008 16.2435 70.7113 15.389 70.5323 14.7217C70.3532 14.0544 70.0358 13.4929 69.5801 13.0371C68.7663 12.2559 67.334 11.8652 65.2832 11.8652H17.334C16.2598 11.8652 15.3972 11.9466 14.7461 12.1094C14.0951 12.2722 13.5254 12.5814 13.0371 13.0371C12.5814 13.4929 12.264 14.0544 12.085 14.7217C11.9059 15.389 11.8164 16.2598 11.8164 17.334V35.8398C11.8164 36.8815 11.9059 37.736 12.085 38.4033C12.264 39.0707 12.5814 39.6322 13.0371 40.0879C13.8509 40.9017 15.2832 41.3086 17.334 41.3086Z" fill="white"/>
</svg>
