<svg width="80" height="73" viewBox="0 0 80 73" fill="none" xmlns="http://www.w3.org/2000/svg">
<path d="M16.7481 72.9493H62.5C65.5599 72.9493 68.3594 72.2819 70.8985 70.9473C73.4375 69.6127 75.4639 67.7328 76.9776 65.3077C78.4913 62.8825 79.2481 60.0586 79.2481 56.836C79.2481 53.6133 78.4913 50.7894 76.9776 48.3643C75.4639 45.9391 73.4375 44.0593 70.8985 42.7247C68.3594 41.39 65.5599 40.7227 62.5 40.7227H16.7481C13.6881 40.7227 10.8886 41.39 8.34958 42.7247C5.81051 44.0593 3.78415 45.9391 2.27048 48.3643C0.756827 50.7894 0 53.6133 0 56.836C0 60.0586 0.756827 62.8825 2.27048 65.3077C3.78415 67.7328 5.81051 69.6127 8.34958 70.9473C10.8886 72.2819 13.6881 72.9493 16.7481 72.9493ZM63.4766 66.4063C61.6862 66.4063 60.0667 65.975 58.6182 65.1123C57.1696 64.2497 56.014 63.0941 55.1514 61.6456C54.2887 60.197 53.8574 58.5775 53.8574 56.7872C53.8574 55.0294 54.2887 53.4262 55.1514 51.9776C56.014 50.529 57.1696 49.3734 58.6182 48.5108C60.0667 47.6482 61.6862 47.2169 63.4766 47.2169C65.2344 47.2169 66.8457 47.64 68.3106 48.4864C69.7754 49.3327 70.9391 50.4802 71.8018 51.9288C72.6644 53.3773 73.0957 54.9805 73.0957 56.7384C73.0631 58.5287 72.6156 60.1563 71.753 61.6212C70.8903 63.086 69.7347 64.2578 68.2862 65.1368C66.8376 66.0157 65.2344 66.4388 63.4766 66.4063Z" fill="white"/>
<path d="M18.3106 35.5469H60.9375C64.2903 35.5469 67.3584 34.8063 70.1416 33.3252C72.9248 31.8441 75.1383 29.7689 76.7823 27.0996C78.4261 24.4303 79.2481 21.3216 79.2481 17.7734C79.2481 14.2253 78.4261 11.1166 76.7823 8.4473C75.1383 5.77797 72.9248 3.70277 70.1416 2.2217C67.3584 0.740569 64.2903 0 60.9375 0H18.3106C14.9577 0 11.8897 0.740569 9.10648 2.2217C6.32328 3.70277 4.10971 5.77797 2.46578 8.4473C0.821926 11.1166 0 14.2253 0 17.7734C0 21.3216 0.821926 24.4303 2.46578 27.0996C4.10971 29.7689 6.32328 31.8441 9.10648 33.3252C11.8897 34.8063 14.9577 35.5469 18.3106 35.5469ZM18.3106 28.9551C16.2598 28.9551 14.3392 28.4912 12.5489 27.5635C10.7585 26.6358 9.31805 25.3337 8.22758 23.6572C7.13705 21.9808 6.59178 20.0195 6.59178 17.7734C6.59178 15.5273 7.13705 13.5661 8.22758 11.8896C9.31805 10.2132 10.7585 8.91114 12.5489 7.9834C14.3392 7.05567 16.2598 6.5918 18.3106 6.5918H60.9375C62.9883 6.5918 64.9088 7.05567 66.6992 7.9834C68.4896 8.91114 69.93 10.2132 71.0205 11.8896C72.111 13.5661 72.6563 15.5273 72.6563 17.7734C72.6563 20.0195 72.111 21.9808 71.0205 23.6572C69.93 25.3337 68.4896 26.6358 66.6992 27.5635C64.9088 28.4912 62.9883 28.9551 60.9375 28.9551H18.3106Z" fill="white"/>
<path d="M18.3106 26.3183C19.9057 26.3509 21.3543 25.9766 22.6563 25.1953C23.9584 24.414 24.9919 23.3642 25.7569 22.0459C26.5219 20.7275 26.9206 19.2708 26.9532 17.6758C26.9532 16.1133 26.5707 14.6891 25.8057 13.4033C25.0407 12.1175 23.9991 11.0921 22.6807 10.3271C21.3624 9.56215 19.9057 9.17969 18.3106 9.17969C16.7481 9.17969 15.3158 9.56215 14.0137 10.3271C12.7117 11.0921 11.6781 12.1256 10.9131 13.4277C10.1481 14.7298 9.76562 16.1621 9.76562 17.7246C9.76562 19.3197 10.1481 20.7682 10.9131 22.0703C11.6781 23.3724 12.7117 24.4059 14.0137 25.1709C15.3158 25.9358 16.7481 26.3183 18.3106 26.3183Z" fill="white"/>
</svg>
