<svg width="89" height="65" viewBox="0 0 89 65" fill="none" xmlns="http://www.w3.org/2000/svg">
<path d="M6.00586 27.2461C6.36393 27.6692 6.80339 27.8727 7.32426 27.8564C7.84506 27.8401 8.30076 27.6204 8.69136 27.1972C13.3789 22.1842 18.7581 18.3919 24.8291 15.8203C30.9001 13.2487 37.3861 11.9629 44.2872 11.9629C51.2533 11.9629 57.7718 13.265 63.8428 15.8691C69.9138 18.4733 75.3093 22.2656 80.0293 27.2461C80.3873 27.6042 80.8187 27.7832 81.3233 27.7832C81.8278 27.7832 82.2591 27.5716 82.6172 27.1484L88.086 21.7285C88.4115 21.3704 88.5824 20.9879 88.5987 20.581C88.6149 20.1741 88.4766 19.7917 88.1836 19.4336C85.1888 15.7227 81.4046 12.4023 76.8311 9.4726C72.2575 6.54293 67.1875 4.23173 61.6211 2.53899C56.0547 0.846327 50.2767 0 44.2872 0C38.2976 0 32.5196 0.846327 26.9532 2.53899C21.3868 4.23173 16.3168 6.54293 11.7432 9.4726C7.16963 12.4023 3.38545 15.7227 0.39063 19.4336C0.13021 19.7917 0 20.1741 0 20.581C0 20.9879 0.179037 21.3704 0.53711 21.7285L6.00586 27.2461ZM21.875 43.2129C22.2982 43.6686 22.762 43.8721 23.2666 43.8232C23.7712 43.7744 24.235 43.5221 24.6582 43.0664C26.9043 40.5273 29.777 38.4277 33.2764 36.7675C36.7757 35.1074 40.446 34.2936 44.2872 34.3261C48.1934 34.2936 51.8962 35.1318 55.3956 36.8408C58.8949 38.5498 61.8002 40.6738 64.1114 43.2129C64.502 43.636 64.9333 43.8476 65.4053 43.8476C65.8773 43.8476 66.3249 43.6197 66.7481 43.164L72.8516 37.1582C73.1771 36.8327 73.348 36.4583 73.3643 36.0351C73.3805 35.612 73.2585 35.2214 72.9981 34.8633C71.0449 32.487 68.6035 30.3548 65.6739 28.4668C62.7441 26.5787 59.4645 25.0813 55.835 23.9746C52.2054 22.8678 48.3562 22.3144 44.2872 22.3144C40.2507 22.3144 36.4177 22.8678 32.7881 23.9746C29.1585 25.0813 25.8789 26.5787 22.9493 28.4668C20.0195 30.3548 17.5781 32.487 15.625 34.8633C15.332 35.2214 15.1937 35.6038 15.21 36.0107C15.2262 36.4176 15.4134 36.8001 15.7715 37.1582L21.875 43.2129ZM44.2872 64.0625C44.7428 64.0625 45.1985 63.9323 45.6543 63.6718C46.11 63.4114 46.7285 62.9069 47.5098 62.1582L56.9336 53.125C57.2266 52.832 57.4056 52.4739 57.4707 52.0508C57.5358 51.6276 57.4219 51.237 57.129 50.8789C55.8268 49.2187 54.0527 47.7701 51.8067 46.5332C49.5605 45.2962 47.054 44.6777 44.2872 44.6777C41.4551 44.6777 38.8997 45.3287 36.6211 46.6308C34.3425 47.9329 32.5684 49.4466 31.2989 51.1718C31.1035 51.4648 31.0466 51.7903 31.128 52.1484C31.2093 52.5065 31.4127 52.832 31.7383 53.125L41.0645 62.1582C41.8457 62.8743 42.4642 63.3707 42.92 63.6474C43.3757 63.9241 43.8314 64.0625 44.2872 64.0625Z" fill="white"/>
</svg>
