<svg width="39" height="69" viewBox="0 0 39 69" fill="none" xmlns="http://www.w3.org/2000/svg">
<path d="M38.2813 34.0332C38.2813 32.9264 37.8744 31.9661 37.0606 31.1523L6.8848 1.17191C6.10353 0.390639 5.15953 0 4.0528 0C2.88093 0 1.9125 0.382499 1.1475 1.1475C0.3825 1.91243 0 2.86457 0 4.0039C0 5.0781 0.390633 6.0384 1.1719 6.8848L28.4668 34.0332L1.1719 61.1816C0.390633 62.028 0 62.9883 0 64.0625C0 65.2018 0.3825 66.154 1.1475 66.9189C1.9125 67.6839 2.88093 68.0664 4.0528 68.0664C5.15953 68.0664 6.10353 67.6758 6.8848 66.8945L37.0606 36.9141C37.4512 36.4909 37.7523 36.0433 37.9639 35.5713C38.1755 35.0993 38.2813 34.5866 38.2813 34.0332Z" fill="#CFCFCF"/>
</svg>
