<svg width="39" height="69" viewBox="0 0 39 69" fill="none" xmlns="http://www.w3.org/2000/svg">
<path d="M0 34.0332C0 34.5866 0.105797 35.0993 0.31739 35.5713C0.528977 36.0433 0.830083 36.4909 1.22071 36.9141L31.3965 66.8945C32.1778 67.6758 33.1381 68.0664 34.2774 68.0664C35.4167 68.0664 36.3688 67.6839 37.1338 66.9189C37.8988 66.154 38.2813 65.2018 38.2813 64.0625C38.2813 62.9883 37.8907 62.028 37.1094 61.1816L9.86329 34.0332L37.1094 6.8848C37.8907 6.0384 38.2813 5.0781 38.2813 4.0039C38.2813 2.86457 37.8988 1.91243 37.1338 1.1475C36.3688 0.382499 35.4167 0 34.2774 0C33.1381 0 32.1778 0.390639 31.3965 1.17191L1.22071 31.1523C0.406903 31.9661 0 32.9264 0 34.0332Z" fill="#CFCFCF"/>
</svg>
