<svg width="77" height="77" viewBox="0 0 77 77" fill="none" xmlns="http://www.w3.org/2000/svg">
<path d="M12.4512 76.2993H57.6172C61.1003 76.2993 63.8184 75.282 65.7715 73.2475C67.7246 71.213 68.7012 68.145 68.7012 64.0434V23.0766L61.6211 30.1079V63.6528C61.6211 65.5083 61.2061 66.908 60.376 67.852C59.5459 68.796 58.5938 69.268 57.5196 69.268H12.5489C10.7911 69.268 9.44017 68.796 8.4961 67.852C7.5521 66.908 7.0801 65.5083 7.0801 63.6528V20.2934C7.0801 18.4379 7.5521 17.0382 8.4961 16.0942C9.44017 15.1502 10.7911 14.6782 12.5489 14.6782H46.6309L53.6622 7.64697H12.4512C8.31707 7.64697 5.20833 8.66421 3.125 10.6987C1.04167 12.7332 0 15.8012 0 19.9028V64.0434C0 68.145 1.04167 71.213 3.125 73.2475C5.20833 75.282 8.31707 76.2993 12.4512 76.2993Z"  fill="#CFCFCF"/>
<path d="M25.7813 51.8364L33.7891 48.4184L69.5313 12.6763L63.7696 7.06097L28.0762 42.7544L24.4629 50.4692C24.2676 50.8272 24.3327 51.1853 24.6582 51.5434C24.9837 51.9014 25.3581 51.9991 25.7813 51.8364ZM72.5098 9.69767L75.4395 6.71917C76.0905 6.00304 76.4242 5.18923 76.4405 4.27777C76.4567 3.3663 76.1231 2.58507 75.4395 1.93407L74.3653 0.859768C73.7467 0.241301 72.9899 -0.0434992 72.0948 0.00536751C71.1996 0.0541675 70.4264 0.404106 69.7754 1.05517L66.7969 3.98477L72.5098 9.69767Z"  fill="#CFCFCF"/>
</svg>
