<svg width="133" height="73" viewBox="0 0 133 73" fill="none" xmlns="http://www.w3.org/2000/svg">
<path d="M115.946 -1.34353e-05C115.395 -1.34012e-05 114.917 0.287237 114.512 0.861739L99.5835 22.1643C99.1945 22.7159 99 23.3823 99 24.1636C99 24.9909 99.1905 25.6745 99.5714 26.2146C99.9523 26.7546 100.426 27.0247 100.994 27.0247C101.529 27.0247 102.007 26.7489 102.428 26.1974L115.946 6.92853L129.464 26.1974C129.886 26.7489 130.364 27.0247 130.899 27.0247C131.466 27.0247 131.94 26.7546 132.321 26.2146C132.702 25.6745 132.893 24.9909 132.893 24.1636C132.893 23.3823 132.698 22.7159 132.309 22.1643L117.381 0.861739C117.17 0.585995 116.947 0.373433 116.712 0.224054C116.477 0.0746746 116.222 -1.34524e-05 115.946 -1.34353e-05Z" fill="#CFCFCF"/>
<path d="M115.946 72.2812C116.222 72.2812 116.477 72.2066 116.712 72.0572C116.947 71.9078 117.17 71.6953 117.381 71.4195L132.309 50.1169C132.698 49.5654 132.893 48.8874 132.893 48.0831C132.893 47.2789 132.702 46.6067 132.321 46.0667C131.94 45.5266 131.466 45.2566 130.899 45.2566C130.364 45.2566 129.886 45.5324 129.464 46.0839L115.946 65.3183L102.428 46.0839C102.007 45.5324 101.529 45.2566 100.994 45.2566C100.426 45.2566 99.9523 45.5266 99.5714 46.0667C99.1905 46.6067 99 47.2789 99 48.0831C99 48.8875 99.1945 49.5654 99.5835 50.1169L114.512 71.4195C114.917 71.994 115.395 72.2812 115.946 72.2812Z" fill="#CFCFCF"/>
<path d="M7.81248 33.5196H24.6582C27.2624 33.5196 29.2155 32.8523 30.5176 31.5176C31.8196 30.1829 32.4707 28.181 32.4707 25.5117V9.0078C32.4707 6.33853 31.8196 4.3366 30.5176 3.002C29.2155 1.66733 27.2624 1 24.6582 1H7.81248C5.20835 1 3.25525 1.66733 1.95318 3.002C0.651059 4.3366 0 6.33853 0 9.0078V25.5117C0 28.181 0.651059 30.1829 1.95318 31.5176C3.25525 32.8523 5.20835 33.5196 7.81248 33.5196ZM7.86138 27.3672C6.68945 27.3672 6.10348 26.7487 6.10348 25.5117V8.959C6.10348 7.7546 6.68945 7.1524 7.86138 7.1524H24.5606C25.765 7.1524 26.3672 7.7546 26.3672 8.959V25.5117C26.3672 26.7487 25.765 27.3672 24.5606 27.3672H7.86138ZM46.4844 33.5196H63.3301C65.9668 33.5196 67.9281 32.8523 69.2139 31.5176C70.4997 30.1829 71.1426 28.181 71.1426 25.5117V9.0078C71.1426 6.33853 70.4997 4.3366 69.2139 3.002C67.9281 1.66733 65.9668 1 63.3301 1H46.4844C43.8802 1 41.9271 1.66733 40.625 3.002C39.3229 4.3366 38.6719 6.33853 38.6719 9.0078V25.5117C38.6719 28.181 39.3229 30.1829 40.625 31.5176C41.9271 32.8523 43.8802 33.5196 46.4844 33.5196ZM46.5821 27.3672C45.3776 27.3672 44.7754 26.7487 44.7754 25.5117V8.959C44.7754 7.7546 45.3776 7.1524 46.5821 7.1524H63.2813C64.4531 7.1524 65.0391 7.7546 65.0391 8.959V25.5117C65.0391 26.7487 64.4531 27.3672 63.2813 27.3672H46.5821ZM7.81248 72.1914H24.6582C27.2624 72.1914 29.2155 71.5322 30.5176 70.2139C31.8196 68.8955 32.4707 66.8854 32.4707 64.1836V47.6797C32.4707 45.0104 31.8196 43.0166 30.5176 41.6983C29.2155 40.3799 27.2624 39.7207 24.6582 39.7207H7.81248C5.20835 39.7207 3.25525 40.3799 1.95318 41.6983C0.651059 43.0166 0 45.0104 0 47.6797V64.1836C0 66.8854 0.651059 68.8955 1.95318 70.2139C3.25525 71.5322 5.20835 72.1914 7.81248 72.1914ZM7.86138 66.0391C6.68945 66.0391 6.10348 65.4369 6.10348 64.2324V47.6797C6.10348 46.4427 6.68945 45.8242 7.86138 45.8242H24.5606C25.765 45.8242 26.3672 46.4427 26.3672 47.6797V64.2324C26.3672 65.4369 25.765 66.0391 24.5606 66.0391H7.86138ZM46.4844 72.1914H63.3301C65.9668 72.1914 67.9281 71.5322 69.2139 70.2139C70.4997 68.8955 71.1426 66.8854 71.1426 64.1836V47.6797C71.1426 45.0104 70.4997 43.0166 69.2139 41.6983C67.9281 40.3799 65.9668 39.7207 63.3301 39.7207H46.4844C43.8802 39.7207 41.9271 40.3799 40.625 41.6983C39.3229 43.0166 38.6719 45.0104 38.6719 47.6797V64.1836C38.6719 66.8854 39.3229 68.8955 40.625 70.2139C41.9271 71.5322 43.8802 72.1914 46.4844 72.1914ZM46.5821 66.0391C45.3776 66.0391 44.7754 65.4369 44.7754 64.2324V47.6797C44.7754 46.4427 45.3776 45.8242 46.5821 45.8242H63.2813C64.4531 45.8242 65.0391 46.4427 65.0391 47.6797V64.2324C65.0391 65.4369 64.4531 66.0391 63.2813 66.0391H46.5821Z" fill="#CFCFCF"/>
</svg>
