<svg width="140" height="83" viewBox="0 0 140 83" fill="none" xmlns="http://www.w3.org/2000/svg">
<path d="M3.02738 6.5918H80.4688C81.3476 6.5918 82.0719 6.28253 82.6416 5.66399C83.2113 5.04553 83.4961 4.24803 83.4961 3.2715C83.4961 2.3275 83.2113 1.54623 82.6416 0.927696C82.0719 0.30923 81.3476 0 80.4688 0H3.02738C2.11591 0 1.38348 0.30923 0.83008 0.927696C0.276693 1.54623 0 2.3275 0 3.2715C0 4.24803 0.276693 5.04553 0.83008 5.66399C1.38348 6.28253 2.11591 6.5918 3.02738 6.5918ZM7.81248 37.6465H15.8692C18.4733 37.6465 20.4264 36.9873 21.7285 35.6689C23.0306 34.3506 23.6817 32.3568 23.6817 29.6875V21.9726C23.6817 19.2708 23.0306 17.2607 21.7285 15.9424C20.4264 14.624 18.4733 13.9648 15.8692 13.9648H7.81248C5.20835 13.9648 3.25525 14.624 1.95318 15.9424C0.651059 17.2607 0 19.2708 0 21.9726V29.6875C0 32.3568 0.651059 34.3506 1.95318 35.6689C3.25525 36.9873 5.20835 37.6465 7.81248 37.6465ZM7.86138 31.543C6.68945 31.543 6.10348 30.9245 6.10348 29.6875V21.9238C6.10348 20.7194 6.68945 20.1172 7.86138 20.1172H15.7715C16.9759 20.1172 17.5782 20.7194 17.5782 21.9238V29.6875C17.5782 30.9245 16.9759 31.543 15.7715 31.543H7.86138ZM37.6953 37.6465H45.752C48.3887 37.6465 50.35 36.9873 51.6358 35.6689C52.9216 34.3506 53.5645 32.3568 53.5645 29.6875V21.9726C53.5645 19.2708 52.9216 17.2607 51.6358 15.9424C50.35 14.624 48.3887 13.9648 45.752 13.9648H37.6953C35.0911 13.9648 33.138 14.624 31.836 15.9424C30.5338 17.2607 29.8828 19.2708 29.8828 21.9726V29.6875C29.8828 32.3568 30.5338 34.3506 31.836 35.6689C33.138 36.9873 35.0911 37.6465 37.6953 37.6465ZM37.793 31.543C36.5886 31.543 35.9864 30.9245 35.9864 29.6875V21.9238C35.9864 20.7194 36.5886 20.1172 37.793 20.1172H45.7032C46.875 20.1172 47.461 20.7194 47.461 21.9238V29.6875C47.461 30.9245 46.875 31.543 45.7032 31.543H37.793ZM67.5782 37.6465H75.6836C78.2878 37.6465 80.2328 36.9873 81.5186 35.6689C82.8044 34.3506 83.4473 32.3568 83.4473 29.6875V21.9726C83.4473 19.2708 82.8044 17.2607 81.5186 15.9424C80.2328 14.624 78.2878 13.9648 75.6836 13.9648H67.5782C64.974 13.9648 63.0208 14.624 61.7188 15.9424C60.4166 17.2607 59.7656 19.2708 59.7656 21.9726V29.6875C59.7656 32.3568 60.4166 34.3506 61.7188 35.6689C63.0208 36.9873 64.974 37.6465 67.5782 37.6465ZM67.627 31.543C66.4551 31.543 65.8692 30.9245 65.8692 29.6875V21.9238C65.8692 20.7194 66.4551 20.1172 67.627 20.1172H75.586C76.7578 20.1172 77.3438 20.7194 77.3438 21.9238V29.6875C77.3438 30.9245 76.7578 31.543 75.586 31.543H67.627ZM3.02738 51.5625H80.4688C81.3476 51.5625 82.0719 51.2533 82.6416 50.6348C83.2113 50.0163 83.4961 49.235 83.4961 48.291C83.4961 47.3145 83.2113 46.5169 82.6416 45.8984C82.0719 45.2799 81.3476 44.9707 80.4688 44.9707H3.02738C2.11591 44.9707 1.38348 45.2799 0.83008 45.8984C0.276693 46.5169 0 47.3145 0 48.291C0 49.235 0.276693 50.0163 0.83008 50.6348C1.38348 51.2533 2.11591 51.5625 3.02738 51.5625ZM7.81248 82.666H15.918C18.5221 82.666 20.4671 81.9987 21.753 80.664C23.0388 79.3294 23.6817 77.3275 23.6817 74.6582V66.9433C23.6817 64.274 23.0388 62.2721 21.753 60.9375C20.4671 59.6028 18.5221 58.9355 15.918 58.9355H7.81248C5.20835 58.9355 3.25525 59.6028 1.95318 60.9375C0.651059 62.2721 0 64.274 0 66.9433V74.6582C0 77.3275 0.651059 79.3294 1.95318 80.664C3.25525 81.9987 5.20835 82.666 7.81248 82.666ZM7.86138 76.5137C6.68945 76.5137 6.10348 75.9114 6.10348 74.707V66.9433C6.10348 65.7064 6.68945 65.0879 7.86138 65.0879H15.8203C16.9922 65.0879 17.5782 65.7064 17.5782 66.9433V74.707C17.5782 75.9114 16.9922 76.5137 15.8203 76.5137H7.86138ZM37.6953 82.666H45.8008C48.405 82.666 50.35 81.9987 51.6358 80.664C52.9216 79.3294 53.5645 77.3275 53.5645 74.6582V66.9433C53.5645 64.274 52.9216 62.2721 51.6358 60.9375C50.35 59.6028 48.405 58.9355 45.8008 58.9355H37.6953C35.0911 58.9355 33.138 59.6028 31.836 60.9375C30.5338 62.2721 29.8828 64.274 29.8828 66.9433V74.6582C29.8828 77.3275 30.5338 79.3294 31.836 80.664C33.138 81.9987 35.0911 82.666 37.6953 82.666ZM37.793 76.5137C36.6211 76.5137 36.0352 75.9114 36.0352 74.707V66.9433C36.0352 65.7064 36.6211 65.0879 37.793 65.0879H45.752C46.8913 65.0879 47.461 65.7064 47.461 66.9433V74.707C47.461 75.9114 46.8913 76.5137 45.752 76.5137H37.793ZM67.5782 82.666H75.6836C78.2878 82.666 80.2409 81.9987 81.543 80.664C82.8451 79.3294 83.4961 77.3275 83.4961 74.6582V66.9433C83.4961 64.274 82.8451 62.2721 81.543 60.9375C80.2409 59.6028 78.2878 58.9355 75.6836 58.9355H67.5782C64.974 58.9355 63.0208 59.6028 61.7188 60.9375C60.4166 62.2721 59.7656 64.274 59.7656 66.9433V74.6582C59.7656 77.3275 60.4166 79.3294 61.7188 80.664C63.0208 81.9987 64.974 82.666 67.5782 82.666ZM67.627 76.5137C66.4877 76.5137 65.918 75.9114 65.918 74.707V66.9433C65.918 65.7064 66.4877 65.0879 67.627 65.0879H75.586C76.7578 65.0879 77.3438 65.7064 77.3438 66.9433V74.707C77.3438 75.9114 76.7578 76.5137 75.586 76.5137H67.627Z" fill="#CFCFCF"/>
<path d="M122.946 58.0247C123.222 58.0247 123.477 57.95 123.712 57.8006C123.947 57.6512 124.17 57.4387 124.381 57.1629L139.309 35.8603C139.698 35.3088 139.893 34.6309 139.893 33.8265C139.893 33.0223 139.702 32.3501 139.321 31.8101C138.94 31.27 138.466 31 137.899 31C137.364 31 136.886 31.2758 136.464 31.8273L122.946 51.0617L109.428 31.8273C109.007 31.2758 108.529 31 107.994 31C107.426 31 106.952 31.27 106.571 31.8101C106.19 32.3501 106 33.0223 106 33.8265C106 34.6309 106.195 35.3088 106.584 35.8603L121.512 57.1629C121.917 57.7374 122.395 58.0247 122.946 58.0247Z" fill="#CFCFCF"/>
</svg>
