<svg width="83" height="59" viewBox="0 0 83 59" fill="none" xmlns="http://www.w3.org/2000/svg">
<path d="M3.46678 13.2813H9.81448C11.084 13.2813 11.9792 13.0209 12.5 12.5C13.0208 11.9792 13.2813 11.084 13.2813 9.8145V3.4668C13.2813 2.19727 13.0208 1.3021 12.5 0.781303C11.9792 0.260437 11.084 0 9.81448 0H3.46678C2.19725 0 1.30208 0.260437 0.78128 0.781303C0.260426 1.3021 0 2.19727 0 3.4668V9.8145C0 11.084 0.260426 11.9792 0.78128 12.5C1.30208 13.0209 2.19725 13.2813 3.46678 13.2813ZM26.3184 13.2813H32.666C33.9355 13.2813 34.8307 13.0209 35.3516 12.5C35.8724 11.9792 36.1328 11.084 36.1328 9.8145V3.4668C36.1328 2.19727 35.8724 1.3021 35.3516 0.781303C34.8307 0.260437 33.9355 0 32.666 0H26.3184C25.0488 0 24.1536 0.260437 23.6328 0.781303C23.112 1.3021 22.8516 2.19727 22.8516 3.4668V9.8145C22.8516 11.084 23.112 11.9792 23.6328 12.5C24.1536 13.0209 25.0488 13.2813 26.3184 13.2813ZM49.1699 13.2813H55.5176C56.7871 13.2813 57.6823 13.0209 58.2032 12.5C58.724 11.9792 58.9844 11.084 58.9844 9.8145V3.4668C58.9844 2.19727 58.724 1.3021 58.2032 0.781303C57.6823 0.260437 56.7871 0 55.5176 0H49.1699C47.9003 0 47.0052 0.260437 46.4844 0.781303C45.9636 1.3021 45.7032 2.19727 45.7032 3.4668V9.8145C45.7032 11.084 45.9636 11.9792 46.4844 12.5C47.0052 13.0209 47.9003 13.2813 49.1699 13.2813ZM72.0215 13.2813H78.3692C79.6387 13.2813 80.5339 13.0209 81.0547 12.5C81.5755 11.9792 81.836 11.084 81.836 9.8145V3.4668C81.836 2.19727 81.5755 1.3021 81.0547 0.781303C80.5339 0.260437 79.6387 0 78.3692 0H72.0215C70.752 0 69.8568 0.260437 69.336 0.781303C68.8151 1.3021 68.5547 2.19727 68.5547 3.4668V9.8145C68.5547 11.084 68.8151 11.9792 69.336 12.5C69.8568 13.0209 70.752 13.2813 72.0215 13.2813ZM3.66208 36.1328H10.0098C11.2793 36.1328 12.1745 35.8724 12.6953 35.3516C13.2161 34.8307 13.4766 33.9356 13.4766 32.6661V26.3184C13.4766 25.0489 13.2161 24.1537 12.6953 23.6328C12.1745 23.112 11.2793 22.8516 10.0098 22.8516H3.66208C2.39255 22.8516 1.49738 23.112 0.97658 23.6328C0.45574 24.1537 0.19532 25.0489 0.19532 26.3184V32.6661C0.19532 33.9356 0.45574 34.8307 0.97658 35.3516C1.49738 35.8724 2.39255 36.1328 3.66208 36.1328ZM26.5137 36.1328H32.8614C34.1308 36.1328 35.026 35.8724 35.5469 35.3516C36.0677 34.8307 36.3282 33.9356 36.3282 32.6661V26.3184C36.3282 25.0489 36.0677 24.1537 35.5469 23.6328C35.026 23.112 34.1308 22.8516 32.8614 22.8516H26.5137C25.2441 22.8516 24.349 23.112 23.8282 23.6328C23.3073 24.1537 23.0469 25.0489 23.0469 26.3184V32.6661C23.0469 33.9356 23.3073 34.8307 23.8282 35.3516C24.349 35.8724 25.2441 36.1328 26.5137 36.1328ZM49.3653 36.1328H55.7129C56.9824 36.1328 57.8776 35.8724 58.3985 35.3516C58.9193 34.8307 59.1797 33.9356 59.1797 32.6661V26.3184C59.1797 25.0489 58.9193 24.1537 58.3985 23.6328C57.8776 23.112 56.9824 22.8516 55.7129 22.8516H49.3653C48.0957 22.8516 47.2005 23.112 46.6797 23.6328C46.1589 24.1537 45.8985 25.0489 45.8985 26.3184V32.6661C45.8985 33.9356 46.1589 34.8307 46.6797 35.3516C47.2005 35.8724 48.0957 36.1328 49.3653 36.1328ZM72.2168 36.1328H78.5645C79.834 36.1328 80.7292 35.8724 81.25 35.3516C81.7709 34.8307 82.0313 33.9356 82.0313 32.6661V26.3184C82.0313 25.0489 81.7709 24.1537 81.25 23.6328C80.7292 23.112 79.834 22.8516 78.5645 22.8516H72.2168C70.9473 22.8516 70.0521 23.112 69.5313 23.6328C69.0104 24.1537 68.75 25.0489 68.75 26.3184V32.6661C68.75 33.9356 69.0104 34.8307 69.5313 35.3516C70.0521 35.8724 70.9473 36.1328 72.2168 36.1328ZM3.66208 58.9844H10.0098C11.2793 58.9844 12.1745 58.724 12.6953 58.2032C13.2161 57.6823 13.4766 56.7871 13.4766 55.5176V49.17C13.4766 47.9005 13.2161 47.0053 12.6953 46.4844C12.1745 45.9636 11.2793 45.7032 10.0098 45.7032H3.66208C2.39255 45.7032 1.49738 45.9636 0.97658 46.4844C0.45574 47.0053 0.19532 47.9005 0.19532 49.17V55.5176C0.19532 56.7871 0.45574 57.6823 0.97658 58.2032C1.49738 58.724 2.39255 58.9844 3.66208 58.9844ZM26.5137 58.9844H32.8614C34.1308 58.9844 35.026 58.724 35.5469 58.2032C36.0677 57.6823 36.3282 56.7871 36.3282 55.5176V49.17C36.3282 47.9005 36.0677 47.0053 35.5469 46.4844C35.026 45.9636 34.1308 45.7032 32.8614 45.7032H26.5137C25.2441 45.7032 24.349 45.9636 23.8282 46.4844C23.3073 47.0053 23.0469 47.9005 23.0469 49.17V55.5176C23.0469 56.7871 23.3073 57.6823 23.8282 58.2032C24.349 58.724 25.2441 58.9844 26.5137 58.9844ZM49.3653 58.9844H55.7129C56.9824 58.9844 57.8776 58.724 58.3985 58.2032C58.9193 57.6823 59.1797 56.7871 59.1797 55.5176V49.17C59.1797 47.9005 58.9193 47.0053 58.3985 46.4844C57.8776 45.9636 56.9824 45.7032 55.7129 45.7032H49.3653C48.0957 45.7032 47.2005 45.9636 46.6797 46.4844C46.1589 47.0053 45.8985 47.9005 45.8985 49.17V55.5176C45.8985 56.7871 46.1589 57.6823 46.6797 58.2032C47.2005 58.724 48.0957 58.9844 49.3653 58.9844ZM72.2168 58.9844H78.5645C79.834 58.9844 80.7292 58.724 81.25 58.2032C81.7709 57.6823 82.0313 56.7871 82.0313 55.5176V49.17C82.0313 47.9005 81.7709 47.0053 81.25 46.4844C80.7292 45.9636 79.834 45.7032 78.5645 45.7032H72.2168C70.9473 45.7032 70.0521 45.9636 69.5313 46.4844C69.0104 47.0053 68.75 47.9005 68.75 49.17V55.5176C68.75 56.7871 69.0104 57.6823 69.5313 58.2032C70.0521 58.724 70.9473 58.9844 72.2168 58.9844Z" fill="white"/>
</svg>
