<svg width="87" height="87" viewBox="0 0 87 87" fill="none" xmlns="http://www.w3.org/2000/svg">
<path d="M45.7525 81.836L82.9107 44.6289C84.4406 43.099 85.3602 41.7399 85.6695 40.5518C85.9787 39.3637 86.1334 37.7767 86.1334 35.791V21.2403C86.1334 19.0918 85.8241 17.4968 85.2056 16.4551C84.5871 15.4134 83.5454 14.1765 82.0806 12.7442L73.3892 4.0039C71.9569 2.57163 70.7199 1.54627 69.6783 0.927803C68.6366 0.30927 67.0415 0 64.8931 0H50.3424C48.3241 0 46.7209 0.154639 45.5328 0.463905C44.3446 0.773172 43.0019 1.6765 41.5045 3.1739L4.29738 40.3809C1.46537 43.2129 0.0330899 46.0775 0.000536609 48.9746C-0.0320167 51.8717 1.41656 54.7689 4.34628 57.666L28.4674 81.7871C31.397 84.6843 34.3023 86.1247 37.1832 86.1084C40.064 86.0921 42.9205 84.668 45.7525 81.836ZM41.0162 76.5625C38.412 79.1667 35.7915 79.1504 33.1549 76.5137L9.57088 52.9297C8.26874 51.6276 7.62584 50.3093 7.64218 48.9746C7.65844 47.64 8.28504 46.3379 9.52198 45.0684L46.4849 8.1543C46.8104 7.82877 47.1603 7.56023 47.5347 7.3487C47.9091 7.1371 48.4055 7.0313 49.024 7.0313H65.1373C66.0487 7.0313 66.8788 7.40564 67.6275 8.1543L77.9303 18.5059C78.6789 19.2546 79.0533 20.0846 79.0533 20.9961V37.1094C79.0533 37.6953 78.9556 38.1836 78.7603 38.5742C78.565 38.9649 78.2883 39.323 77.9303 39.6485L41.0162 76.5625ZM60.3033 31.3965C61.9309 31.3965 63.2736 30.8513 64.3316 29.7608C65.3895 28.6703 65.9185 27.3438 65.9185 25.7813C65.9185 24.2188 65.3895 22.9004 64.3316 21.8262C63.2736 20.752 61.9309 20.2149 60.3033 20.2149C58.7082 20.2149 57.3817 20.752 56.3238 21.8262C55.2658 22.9004 54.7369 24.2188 54.7369 25.7813C54.7369 27.3438 55.2658 28.6703 56.3238 29.7608C57.3817 30.8513 58.7082 31.3965 60.3033 31.3965Z" fill="#CFCFCF"/>
</svg>
