<svg width="92" height="62" viewBox="0 0 92 62" fill="none" xmlns="http://www.w3.org/2000/svg">
<path d="M19.043 61.9434H68.7012C73.0306 61.9434 76.9368 60.9506 80.42 58.9649C83.903 56.9792 86.6699 54.2855 88.7207 50.8838C90.7715 47.4822 91.7969 43.6654 91.7969 39.4336C91.7969 35.2019 90.7471 31.3933 88.6475 28.0078C86.5479 24.6224 83.667 21.945 80.0049 19.9756C76.3428 18.0062 72.1517 17.0215 67.4317 17.0215C64.8926 12.0085 61.3607 8.07786 56.836 5.22953C52.3112 2.3812 47.2657 0.957031 41.6993 0.957031C36.7188 0.957031 32.1127 2.1208 27.8809 4.44833C23.6491 6.7758 20.166 9.95776 17.4317 13.9942C14.6973 18.0306 13.1022 22.6042 12.6465 27.7149C8.80533 28.8217 5.73729 30.905 3.44236 33.9649C1.14745 37.0248 0 40.573 0 44.6094C0 47.7995 0.748697 50.7129 2.24609 53.3496C3.74347 55.9864 5.90819 58.0778 8.74026 59.6241C11.5723 61.1703 15.0065 61.9434 19.043 61.9434ZM18.9453 54.9121C15.2343 54.9121 12.3209 54.0088 10.2051 52.2022C8.08919 50.3956 7.03126 47.946 7.03126 44.8535C7.03126 42.2494 7.82879 40.0521 9.42386 38.2617C11.0189 36.4714 13.2975 35.1693 16.2598 34.3555C17.4316 34.0625 18.2699 33.6068 18.7745 32.9883C19.279 32.3699 19.5801 31.4259 19.6778 30.1563C19.9382 26.9662 20.6706 24.0202 21.875 21.3184C23.0794 18.6166 24.6745 16.2728 26.6602 14.2871C28.6458 12.3015 30.9163 10.7553 33.4717 9.64853C36.027 8.54173 38.7695 7.98833 41.6993 7.98833C46.0612 7.98833 49.9349 9.1602 53.3203 11.5039C56.7057 13.8477 59.4727 17.2005 61.6211 21.5625C62.1094 22.5717 62.7035 23.2797 63.4034 23.6865C64.1032 24.0935 65.0879 24.2969 66.3575 24.2969C70.3939 24.2969 73.7711 24.9968 76.4893 26.3965C79.2073 27.7963 81.2581 29.6599 82.6416 31.9873C84.025 34.3148 84.7168 36.862 84.7168 39.6289C84.7168 42.4935 84.0332 45.0814 82.6661 47.3926C81.2989 49.7038 79.4434 51.5349 77.0996 52.8858C74.7558 54.2367 72.1354 54.9121 69.2383 54.9121H18.9453Z" fill="#158DFF"/>
</svg>
