<svg width="91" height="72" viewBox="0 0 91 72" fill="none" xmlns="http://www.w3.org/2000/svg">
<path d="M12.4512 71.6328H78.125C82.3243 71.6328 85.4493 70.6074 87.5 68.5567C89.5509 66.5059 90.5764 63.4297 90.5764 59.3281V12.7461C90.5764 8.64457 89.5509 5.5684 87.5 3.5176C85.4493 1.4668 82.3243 0.441406 78.125 0.441406H12.4512C8.31705 0.441406 5.20831 1.4668 3.12498 3.5176C1.04166 5.5684 0 8.64457 0 12.7461V59.3281C0 63.4297 1.04166 66.5059 3.12498 68.5567C5.20831 70.6074 8.31705 71.6328 12.4512 71.6328ZM12.5489 64.5527C10.791 64.5527 9.43195 64.0807 8.47168 63.1367C7.51141 62.1927 7.03128 60.8092 7.03128 58.9863V13.0879C7.03128 11.2324 7.51141 9.84083 8.47168 8.9131C9.43195 7.98537 10.791 7.5215 12.5489 7.5215H78.0274C79.7852 7.5215 81.1442 7.98537 82.1045 8.9131C83.0648 9.84083 83.5449 11.2324 83.5449 13.0879V58.9863C83.5449 60.8092 83.0648 62.1927 82.1045 63.1367C81.1442 64.0807 79.7852 64.5527 78.0274 64.5527H12.5489ZM4.73638 13.918V20.0215H85.8887V13.918H4.73638Z" fill="#158DFF"/>
<path d="M16.8457 55.3731C16.8457 56.3822 17.1631 57.1878 17.7979 57.7901C18.4326 58.3923 19.2546 58.6934 20.2637 58.6934H70.3614C71.4031 58.6934 72.2331 58.3923 72.8516 57.7901C73.4701 57.1878 73.7793 56.3822 73.7793 55.3731V49.416C73.7793 48.4069 73.4701 47.6013 72.8516 46.999C72.2331 46.3968 71.4031 46.0957 70.3614 46.0957H20.2637C19.2546 46.0957 18.4326 46.3968 17.7979 46.999C17.1631 47.6013 16.8457 48.4069 16.8457 49.416V55.3731Z" fill="#158DFF"/>
</svg>
