<svg width="66" height="83" viewBox="0 0 66 83" fill="none" xmlns="http://www.w3.org/2000/svg">
<path d="M12.2559 82.957H52.7344C56.8359 82.957 59.9121 81.9153 61.9629 79.832C64.0137 77.7487 65.0391 74.64 65.0391 70.5058V36.4726C65.0391 33.7708 64.795 31.6631 64.3067 30.1494C63.8184 28.6357 62.7441 27.0163 61.084 25.291L40.8203 4.58791C39.2253 2.96031 37.6628 1.89421 36.1328 1.38961C34.6028 0.885077 32.666 0.632812 30.3223 0.632812H12.2559C8.15428 0.632812 5.08625 1.67448 3.05178 3.75781C1.01726 5.84115 0 8.94988 0 13.084V70.5058C0 74.6725 1.01726 77.7894 3.05178 79.8564C5.08625 81.9235 8.15428 82.957 12.2559 82.957ZM12.5977 75.9258C10.7747 75.9258 9.39128 75.4456 8.44728 74.4853C7.50328 73.525 7.03128 72.166 7.03128 70.4082V13.1816C7.03128 11.4238 7.50328 10.0648 8.44728 9.10452C9.39128 8.14418 10.791 7.66401 12.6465 7.66401H29.1016V29.3926C29.1016 31.9316 29.7445 33.844 31.0303 35.1299C32.3161 36.4157 34.2285 37.0586 36.7676 37.0586H57.959V70.4082C57.959 72.166 57.487 73.525 56.543 74.4853C55.599 75.4456 54.2155 75.9258 52.3926 75.9258H12.5977ZM37.5977 30.4668C36.2956 30.4668 35.6446 29.8157 35.6446 28.5136V8.98241L56.6406 30.4668H37.5977Z" fill="#158DFF"/>
</svg>
