<svg width="79" height="80" viewBox="0 0 79 80" fill="none" xmlns="http://www.w3.org/2000/svg">
<path d="M39.4043 79.4414C44.8079 79.4414 49.8861 78.416 54.6387 76.3652C59.3913 74.3145 63.5824 71.4661 67.212 67.8203C70.8415 64.1744 73.6898 59.9752 75.7569 55.2226C77.8239 50.47 78.8575 45.4082 78.8575 40.0371C78.8575 34.6661 77.8239 29.6042 75.7569 24.8515C73.6898 20.0989 70.8333 15.8997 67.1875 12.2539C63.5417 8.60805 59.3425 5.75975 54.5899 3.70901C49.8373 1.65821 44.7591 0.632812 39.3555 0.632812C33.9844 0.632812 28.9226 1.65821 24.17 3.70901C19.4174 5.75975 15.2344 8.60805 11.6211 12.2539C8.00779 15.8997 5.16763 20.0989 3.10058 24.8515C1.03353 29.6042 0 34.6661 0 40.0371C0 45.4082 1.03353 50.47 3.10058 55.2226C5.16763 59.9752 8.01593 64.1744 11.6455 67.8203C15.2751 71.4661 19.4662 74.3145 24.2188 76.3652C28.9714 78.416 34.0332 79.4414 39.4043 79.4414ZM39.4043 72.0195C34.9772 72.0195 30.835 71.1976 26.9776 69.5537C23.1201 67.9098 19.7347 65.623 16.8213 62.6933C13.9079 59.7636 11.6292 56.362 9.98536 52.4883C8.34149 48.6146 7.51956 44.4642 7.51956 40.0371C7.51956 35.6101 8.33336 31.4596 9.96096 27.5859C11.5886 23.7122 13.8591 20.3106 16.7725 17.3808C19.6859 14.4512 23.0713 12.1644 26.9287 10.5205C30.7861 8.87665 34.9284 8.05472 39.3555 8.05472C43.8151 8.05472 47.9737 8.87665 51.8311 10.5205C55.6885 12.1644 59.082 14.4512 62.0118 17.3808C64.9414 20.3106 67.2363 23.7122 68.8965 27.5859C70.5567 31.4596 71.3868 35.6101 71.3868 40.0371C71.3868 44.4642 70.5648 48.6146 68.9209 52.4883C67.277 56.362 64.9984 59.7636 62.085 62.6933C59.1716 65.623 55.778 67.9098 51.9043 69.5537C48.0306 71.1976 43.8639 72.0195 39.4043 72.0195Z" fill="#158DFF"/>
<path d="M39.4042 20.4082C38.4602 20.4082 37.679 20.7174 37.0605 21.3359C36.4421 21.9544 36.1328 22.7357 36.1328 23.6797V40.916L36.4745 49.6074L32.9101 45.0664L28.955 41.1113C28.304 40.4603 27.5228 40.1348 26.6113 40.1348C25.7324 40.1348 24.9918 40.4359 24.3896 41.0381C23.7874 41.6403 23.4863 42.3971 23.4863 43.3086C23.4863 44.2201 23.763 44.9688 24.3163 45.5547L36.8652 58.0058C37.7116 58.8522 38.5579 59.2754 39.4042 59.2754C40.2832 59.2754 41.1458 58.8522 41.9921 58.0058L54.4433 45.5547C55.0618 44.9688 55.371 44.2201 55.371 43.3086C55.371 42.3971 55.0618 41.6403 54.4433 41.0381C53.8249 40.4359 53.0599 40.1348 52.1484 40.1348C51.2044 40.1348 50.4395 40.4603 49.8535 41.1113L45.9472 45.0664L42.3339 49.6562L42.6269 40.916V23.6797C42.6269 22.7357 42.3258 21.9544 41.7236 21.3359C41.1214 20.7174 40.3482 20.4082 39.4042 20.4082Z" fill="#158DFF"/>
</svg>
