<svg width="71" height="71" viewBox="0 0 71 71" fill="none" xmlns="http://www.w3.org/2000/svg">
<path d="M2.17267 52.0643C3.12559 53.0172 4.26121 53.5889 5.57952 53.7794C6.89786 53.9699 8.12097 53.5011 9.24885 52.3733L52.4073 9.21485C53.5351 8.08701 54.0038 6.86393 53.8133 5.54559C53.6229 4.22725 53.0512 3.09162 52.0983 2.13871C51.463 1.50341 50.7019 1.00708 49.8152 0.649702C48.9285 0.292381 47.9707 0.151707 46.9418 0.227687L10.2781 3.06255C7.90375 3.26626 6.16418 3.92053 5.05935 5.02536C3.93147 6.15325 3.2772 7.89281 3.09654 10.2441L0.261686 46.9078C0.162701 47.9597 0.297622 48.9232 0.666446 49.7984C1.0353 50.6737 1.53737 51.429 2.17267 52.0643ZM18.846 68.8067C19.4813 69.442 20.2423 69.9383 21.1291 70.2957C22.0159 70.653 22.9737 70.7937 24.0025 70.7177L60.6662 67.8829C63.0405 67.6792 64.7801 67.0249 65.885 65.92C67.0128 64.7921 67.6671 63.0526 67.8478 60.7013L70.7172 24.0031C70.7931 22.9742 70.6525 22.0164 70.2951 21.1297C69.9378 20.2429 69.4414 19.4819 68.8061 18.8466C67.8532 17.8937 66.7176 17.322 65.3993 17.1315C64.0809 16.9411 62.8463 17.4213 61.6954 18.5722L18.5371 61.7305C17.4092 62.8584 16.9405 64.0815 17.131 65.3998C17.3214 66.7182 17.8931 67.8538 18.846 68.8067Z" fill="#296017"/>
</svg>
