<svg width="80" height="79" viewBox="0 0 80 79" fill="none" xmlns="http://www.w3.org/2000/svg">
<path d="M2.92968 20.8125H36.6699C37.4837 20.8125 38.1754 20.5196 38.7451 19.9336C39.3147 19.3477 39.5996 18.6641 39.5996 17.8828C39.5996 17.069 39.3147 16.3773 38.7451 15.8076C38.1754 15.238 37.4837 14.9531 36.6699 14.9531H2.92968C2.11588 14.9531 1.42415 15.238 0.85448 15.8076C0.284826 16.3773 0 17.069 0 17.8828C0 18.6641 0.284826 19.3477 0.85448 19.9336C1.42415 20.5196 2.11588 20.8125 2.92968 20.8125ZM2.92968 48.4004H36.6699C37.4837 48.4004 38.1754 48.1237 38.7451 47.5703C39.3147 47.0169 39.5996 46.3171 39.5996 45.4707C39.5996 44.6895 39.3147 44.014 38.7451 43.4443C38.1754 42.8747 37.4837 42.5898 36.6699 42.5898H2.92968C2.11588 42.5898 1.42415 42.8747 0.85448 43.4443C0.284826 44.014 0 44.6895 0 45.4707C0 46.3171 0.284826 47.0169 0.85448 47.5703C1.42415 48.1237 2.11588 48.4004 2.92968 48.4004ZM2.92968 34.582H36.6699C37.4837 34.582 38.1754 34.2972 38.7451 33.7275C39.3147 33.1579 39.5996 32.4661 39.5996 31.6523C39.5996 30.8385 39.3147 30.1549 38.7451 29.6015C38.1754 29.0482 37.4837 28.7715 36.6699 28.7715H2.92968C2.11588 28.7715 1.42415 29.0482 0.85448 29.6015C0.284826 30.1549 0 30.8385 0 31.6523C0 32.4661 0.284826 33.1579 0.85448 33.7275C1.42415 34.2972 2.11588 34.582 2.92968 34.582Z" fill="#158DFF"/>
<path d="M79.0039 18.713V4.11339C79.0039 3.03912 78.6296 2.20089 77.8809 1.59869C77.1322 0.996489 76.237 0.809322 75.1953 1.03719L55.0293 5.43169C52.3275 6.01762 50.9766 7.43366 50.9766 9.67979V52.6485C51.237 54.4714 50.5371 55.5294 48.877 55.8223L42.7735 57.0919C38.8347 57.9382 35.9294 59.3461 34.0576 61.3155C32.1859 63.2849 31.25 65.7507 31.25 68.713C31.25 71.7077 32.2998 74.1573 34.3994 76.0616C36.4991 77.9659 39.1765 78.918 42.4317 78.918C44.3197 78.918 46.3786 78.4053 48.6084 77.38C50.8383 76.3546 52.7507 74.7025 54.3457 72.4239C55.9408 70.1452 56.7383 67.1179 56.7383 63.3419V27.9903C56.7383 27.0138 56.8604 26.379 57.1045 26.086C57.3486 25.7931 57.8939 25.5652 58.7403 25.4024L76.7578 21.3985C77.4414 21.2683 77.9867 20.9591 78.3936 20.4708C78.8005 19.9825 79.0039 19.3966 79.0039 18.713Z" fill="#158DFF"/>
</svg>
