<svg width="69" height="39" viewBox="0 0 69 39" fill="none" xmlns="http://www.w3.org/2000/svg">
<path d="M34.0332 38.2813C35.14 38.2813 36.1003 37.8744 36.9141 37.0606L66.8945 6.8848C67.6758 6.10353 68.0664 5.15953 68.0664 4.0528C68.0664 2.88093 67.6839 1.9125 66.9189 1.1475C66.154 0.3825 65.2018 0 64.0625 0C62.9883 0 62.028 0.390633 61.1816 1.1719L34.0332 28.4668L6.88477 1.1719C6.03842 0.390633 5.07813 0 4.00391 0C2.86459 0 1.91244 0.3825 1.14746 1.1475C0.382484 1.9125 7.62939e-06 2.88093 7.62939e-06 4.0528C7.62939e-06 5.15953 0.390633 6.10353 1.17188 6.8848L31.1523 37.0606C31.5755 37.4512 32.0231 37.7523 32.4951 37.9639C32.9671 38.1755 33.4798 38.2813 34.0332 38.2813Z" fill="#CFCFCF"/>
</svg>
