<svg width="52" height="52" viewBox="0 0 52 52" fill="none" xmlns="http://www.w3.org/2000/svg">
<path d="M1.12308 50.4394C1.87175 51.2207 2.80761 51.6032 3.93068 51.5869C5.05375 51.5706 5.98961 51.1881 6.73828 50.4394L25.7813 31.3476L44.8731 50.4394C45.6217 51.1881 46.5495 51.5706 47.6563 51.5869C48.763 51.6032 49.6907 51.2207 50.4395 50.4394C51.2207 49.6907 51.6032 48.763 51.5869 47.6562C51.5706 46.5495 51.1881 45.6217 50.4395 44.873L31.3477 25.7812L50.4395 6.7383C51.1881 5.95703 51.5706 5.013 51.5869 3.9062C51.6032 2.79947 51.2207 1.87173 50.4395 1.123C49.6907 0.374334 48.763 0 47.6563 0C46.5495 0 45.6217 0.374334 44.8731 1.123L25.7813 20.2148L6.73828 1.123C5.98961 0.374334 5.05375 0 3.93068 0C2.80761 0 1.87175 0.374334 1.12308 1.123C0.374359 1.87173 0 2.79947 0 3.9062C0 5.013 0.374359 5.95703 1.12308 6.7383L20.2149 25.7812L1.12308 44.873C0.374359 45.6217 0 46.5495 0 47.6562C0 48.763 0.374359 49.6907 1.12308 50.4394Z" fill="#8B1B10"/>
</svg>
