<svg width="94" height="82" viewBox="0 0 94 82" fill="none" xmlns="http://www.w3.org/2000/svg">
<path d="M35.4492 76.9004H57.7637V49.3613C57.7637 47.3105 56.7383 46.2851 54.6875 46.2851H38.5254C37.6139 46.2851 36.8733 46.5618 36.3037 47.1152C35.734 47.6686 35.4492 48.4173 35.4492 49.3613V76.9004ZM20.5078 81.4414H72.4121C75.2441 81.4414 77.4577 80.6601 79.0528 79.0976C80.6478 77.5351 81.4453 75.3704 81.4453 72.6035V30.2207L74.4141 25.5332V70.7968C74.4141 73.2057 73.2422 74.4101 70.8985 74.4101H21.9727C19.6615 74.4101 18.5059 73.2057 18.5059 70.7968V25.5332L11.4258 30.2207V72.6035C11.4258 75.403 12.2233 77.5758 13.8184 79.122C15.4134 80.6683 17.6432 81.4414 20.5078 81.4414ZM0 38.8144C0 39.7259 0.333659 40.5397 1.00098 41.2558C1.66831 41.9719 2.60418 42.33 3.80858 42.33C4.42711 42.33 4.98865 42.1835 5.49318 41.8906C5.99771 41.5976 6.47785 41.2721 6.93358 40.914L45.3614 8.6386C46.2077 7.92247 47.054 7.92247 47.9004 8.6386L86.3282 40.914C86.7839 41.2721 87.2721 41.5976 87.793 41.8906C88.3138 42.1835 88.8835 42.33 89.502 42.33C90.5109 42.33 91.3817 42.037 92.1144 41.4511C92.847 40.8652 93.2134 40.0351 93.2134 38.9609C93.2134 37.7239 92.7737 36.7311 91.8944 35.9824L51.5625 2.09571C50.0325 0.826177 48.3887 0.191406 46.6309 0.191406C44.8731 0.191406 43.2455 0.826177 41.7481 2.09571L1.36718 35.9824C0.455727 36.7311 0 37.6751 0 38.8144ZM70.9473 20.3086L81.4453 29.1953V11.4218C81.4453 9.40361 80.4362 8.39451 78.418 8.39451H74.0235C73.0794 8.39451 72.3307 8.67121 71.7774 9.22461C71.224 9.77801 70.9473 10.5104 70.9473 11.4218V20.3086Z" fill="#158DFF"/>
</svg>
