<svg width="91" height="72" viewBox="0 0 91 72" fill="none" xmlns="http://www.w3.org/2000/svg">
<path d="M8.44728 71.6328H82.1289C84.6679 71.6328 86.7106 70.8679 88.2569 69.3379C89.8032 67.808 90.5764 65.806 90.5764 63.332V8.7422C90.5764 6.26827 89.8032 4.26631 88.2569 2.73631C86.7106 1.20637 84.6679 0.441406 82.1289 0.441406H8.44728C5.90821 0.441406 3.86558 1.20637 2.31938 2.73631C0.773126 4.26631 0 6.26827 0 8.7422V63.332C0 65.806 0.773126 67.808 2.31938 69.3379C3.86558 70.8679 5.90821 71.6328 8.44728 71.6328ZM8.49608 64.6016C7.22655 64.6016 6.59178 63.9831 6.59178 62.7461V58.9375C6.59178 58.3841 6.76268 57.9365 7.10448 57.5947C7.44628 57.2529 7.89388 57.082 8.44728 57.082H12.7442C13.2975 57.082 13.7369 57.2529 14.0625 57.5947C14.388 57.9365 14.5508 58.3841 14.5508 58.9375V62.7461C14.5508 63.9831 13.9486 64.6016 12.7442 64.6016H8.49608ZM8.44728 52.0527C7.89388 52.0527 7.44628 51.8737 7.10448 51.5156C6.76268 51.1575 6.59178 50.7344 6.59178 50.2461V46.4375C6.59178 45.2005 7.21028 44.582 8.44728 44.582H12.7442C13.9486 44.582 14.5508 45.2005 14.5508 46.4375V50.2461C14.5508 50.7344 14.388 51.1575 14.0625 51.5156C13.7369 51.8737 13.2975 52.0527 12.7442 52.0527H8.44728ZM8.44728 39.7481C7.89388 39.7481 7.44628 39.5772 7.10448 39.2354C6.76268 38.8936 6.59178 38.4785 6.59178 37.9902V34.1817C6.59178 32.9447 7.21028 32.3262 8.44728 32.3262H12.7442C13.9486 32.3262 14.5508 32.9447 14.5508 34.1817V37.9902C14.5508 38.4785 14.388 38.8936 14.0625 39.2354C13.7369 39.5772 13.2975 39.7481 12.7442 39.7481H8.44728ZM8.44728 27.5899C7.89388 27.5899 7.44628 27.4108 7.10448 27.0527C6.76268 26.6946 6.59178 26.2877 6.59178 25.832V21.9746C6.59178 20.7377 7.21028 20.1192 8.44728 20.1192H12.7442C13.9486 20.1192 14.5508 20.7377 14.5508 21.9746V25.832C14.5508 26.2877 14.388 26.6946 14.0625 27.0527C13.7369 27.4108 13.2975 27.5899 12.7442 27.5899H8.44728ZM8.44728 14.9922C7.89388 14.9922 7.44628 14.8213 7.10448 14.4795C6.76268 14.1377 6.59178 13.7227 6.59178 13.2344V9.377C6.59178 8.14 7.22655 7.5215 8.49608 7.5215H12.7442C13.9486 7.5215 14.5508 8.14 14.5508 9.377V13.2344C14.5508 13.7227 14.388 14.1377 14.0625 14.4795C13.7369 14.8213 13.2975 14.9922 12.7442 14.9922H8.44728ZM22.461 64.6016C21.9076 64.6016 21.4681 64.4388 21.1426 64.1133C20.817 63.7878 20.6543 63.3483 20.6543 62.7949V41.457C20.6543 40.9037 20.817 40.4642 21.1426 40.1387C21.4681 39.8132 21.9076 39.6504 22.461 39.6504H68.1153C68.6686 39.6504 69.1081 39.8132 69.4336 40.1387C69.7591 40.4642 69.9219 40.9037 69.9219 41.457V62.7949C69.9219 63.3483 69.7591 63.7878 69.4336 64.1133C69.1081 64.4388 68.6686 64.6016 68.1153 64.6016H22.461ZM22.461 32.5703C21.9076 32.5703 21.4681 32.4075 21.1426 32.082C20.817 31.7565 20.6543 31.3171 20.6543 30.7637V9.2793C20.6543 8.69337 20.817 8.25394 21.1426 7.961C21.4681 7.668 21.9076 7.5215 22.461 7.5215H68.1153C68.6686 7.5215 69.1081 7.668 69.4336 7.961C69.7591 8.25394 69.9219 8.69337 69.9219 9.2793V30.7637C69.9219 31.3171 69.7591 31.7565 69.4336 32.082C69.1081 32.4075 68.6686 32.5703 68.1153 32.5703H22.461ZM77.8321 64.6016C76.6276 64.6016 76.0254 63.9831 76.0254 62.7461V58.9375C76.0254 58.3841 76.1963 57.9365 76.5381 57.5947C76.8799 57.2529 77.3112 57.082 77.8321 57.082H82.1778C82.7311 57.082 83.1787 57.2529 83.5205 57.5947C83.8623 57.9365 84.0332 58.3841 84.0332 58.9375V62.7461C84.0332 63.9831 83.3984 64.6016 82.1289 64.6016H77.8321ZM77.8321 52.0527C77.3112 52.0527 76.8799 51.8737 76.5381 51.5156C76.1963 51.1575 76.0254 50.7344 76.0254 50.2461V46.4375C76.0254 45.2005 76.6276 44.582 77.8321 44.582H82.1778C83.4147 44.582 84.0332 45.2005 84.0332 46.4375V50.2461C84.0332 50.7344 83.8623 51.1575 83.5205 51.5156C83.1787 51.8737 82.7311 52.0527 82.1778 52.0527H77.8321ZM77.8321 39.7481C77.3112 39.7481 76.8799 39.5772 76.5381 39.2354C76.1963 38.8936 76.0254 38.4785 76.0254 37.9902V34.1817C76.0254 32.9447 76.6276 32.3262 77.8321 32.3262H82.1778C83.4147 32.3262 84.0332 32.9447 84.0332 34.1817V37.9902C84.0332 38.4785 83.8623 38.8936 83.5205 39.2354C83.1787 39.5772 82.7311 39.7481 82.1778 39.7481H77.8321ZM77.8321 27.5899C77.3112 27.5899 76.8799 27.4108 76.5381 27.0527C76.1963 26.6946 76.0254 26.2877 76.0254 25.832V21.9746C76.0254 20.7377 76.6276 20.1192 77.8321 20.1192H82.1778C83.4147 20.1192 84.0332 20.7377 84.0332 21.9746V25.832C84.0332 26.2877 83.8623 26.6946 83.5205 27.0527C83.1787 27.4108 82.7311 27.5899 82.1778 27.5899H77.8321ZM77.8321 14.9922C77.3112 14.9922 76.8799 14.8213 76.5381 14.4795C76.1963 14.1377 76.0254 13.7227 76.0254 13.2344V9.377C76.0254 8.14 76.6276 7.5215 77.8321 7.5215H82.1289C83.3984 7.5215 84.0332 8.14 84.0332 9.377V13.2344C84.0332 13.7227 83.8623 14.1377 83.5205 14.4795C83.1787 14.8213 82.7311 14.9922 82.1778 14.9922H77.8321Z" fill="#158DFF"/>
</svg>
