<svg width="91" height="72" viewBox="0 0 91 72" fill="none" xmlns="http://www.w3.org/2000/svg">
<path d="M86.0352 56.1524L63.6231 34.961C62.7767 34.2123 61.8652 33.6426 60.8887 33.252C59.9121 32.8613 58.9356 32.666 57.959 32.666C56.9173 32.666 55.9245 32.845 54.9805 33.2031C54.0365 33.5612 53.125 34.1309 52.2461 34.9121L35.0586 50.293L28.0274 43.9942C27.2461 43.3106 26.416 42.7816 25.5371 42.4072C24.6582 42.0329 23.763 41.8457 22.8516 41.8457C22.0378 41.8457 21.2158 42.0247 20.3858 42.3828C19.5556 42.7409 18.75 43.2617 17.9688 43.9453L3.32028 57.0801C3.35288 60.6934 4.12601 63.444 5.63968 65.332C7.15335 67.2201 9.37501 68.1641 12.3047 68.1641H75.1465C78.6947 68.1641 81.3965 67.1712 83.252 65.1856C85.1075 63.1999 86.0352 60.1888 86.0352 56.1524ZM28.711 35.8399C31.1849 35.8399 33.3008 34.9528 35.0586 33.1787C36.8164 31.4046 37.6953 29.2806 37.6953 26.8067C37.6953 24.3327 36.8164 22.2087 35.0586 20.4346C33.3008 18.6605 31.1849 17.7735 28.711 17.7735C26.237 17.7735 24.1129 18.6605 22.3389 20.4346C20.5648 22.2087 19.6778 24.3327 19.6778 26.8067C19.6778 29.2806 20.5648 31.4046 22.3389 33.1787C24.1129 34.9528 26.237 35.8399 28.711 35.8399ZM12.4512 71.1914H78.125C82.3243 71.1914 85.4493 70.166 87.5 68.1152C89.5509 66.0645 90.5764 62.9883 90.5764 58.8867V12.3047C90.5764 8.20316 89.5509 5.12699 87.5 3.07619C85.4493 1.02539 82.3243 0 78.125 0H12.4512C8.31705 0 5.20831 1.02539 3.12498 3.07619C1.04166 5.12699 0 8.20316 0 12.3047V58.8867C0 62.9883 1.04166 66.0645 3.12498 68.1152C5.20831 70.166 8.31705 71.1914 12.4512 71.1914ZM12.5489 64.1113C10.791 64.1113 9.43195 63.6393 8.47168 62.6953C7.51141 61.7513 7.03128 60.3678 7.03128 58.5449V12.6465C7.03128 10.791 7.51141 9.39943 8.47168 8.47169C9.43195 7.54396 10.791 7.0801 12.5489 7.0801H78.0274C79.7852 7.0801 81.1442 7.54396 82.1045 8.47169C83.0648 9.39943 83.5449 10.791 83.5449 12.6465V58.5449C83.5449 60.3678 83.0648 61.7513 82.1045 62.6953C81.1442 63.6393 79.7852 64.1113 78.0274 64.1113H12.5489Z" fill="#158DFF"/>
</svg>
