<svg width="76" height="77" viewBox="0 0 76 77" fill="none" xmlns="http://www.w3.org/2000/svg">
<path d="M0 31.0547C0 35.319 0.805681 39.3311 2.41704 43.0908C4.02831 46.8506 6.25811 50.1546 9.10644 53.0029C11.9548 55.8512 15.2507 58.0729 18.9941 59.668C22.7376 61.263 26.7578 62.0605 31.0547 62.0605C34.3425 62.0605 37.4837 61.5722 40.4785 60.5957C43.4733 59.6191 46.224 58.2519 48.7304 56.4941L66.8945 74.707C67.4153 75.1953 67.985 75.5534 68.6035 75.7812C69.222 76.0091 69.8568 76.123 70.5078 76.123C71.9401 76.123 73.112 75.651 74.0234 74.707C74.9349 73.763 75.3906 72.5749 75.3906 71.1426C75.3906 70.459 75.2686 69.8161 75.0244 69.2139C74.7803 68.6116 74.4466 68.0827 74.0234 67.6269L55.957 49.5117C57.8776 46.9401 59.375 44.0837 60.4492 40.9424C61.5234 37.8011 62.0605 34.5052 62.0605 31.0547C62.0605 26.7578 61.2549 22.7376 59.6435 18.9941C58.0322 15.2506 55.8105 11.9547 52.9785 9.1064C50.1465 6.25813 46.8506 4.02833 43.0908 2.417C39.331 0.805666 35.319 0 31.0547 0C26.7578 0 22.7376 0.805666 18.9941 2.417C15.2507 4.02833 11.9548 6.25813 9.10644 9.1064C6.25811 11.9547 4.02831 15.2506 2.41704 18.9941C0.805681 22.7376 0 26.7578 0 31.0547ZM7.51954 31.0547C7.51954 27.7995 8.12174 24.7477 9.32614 21.8994C10.5306 19.0511 12.2152 16.5527 14.3798 14.4043C16.5446 12.2558 19.0511 10.5713 21.8994 9.3506C24.7477 8.12987 27.7995 7.5195 31.0547 7.5195C34.3099 7.5195 37.3535 8.12987 40.1855 9.3506C43.0176 10.5713 45.516 12.2558 47.6806 14.4043C49.8454 16.5527 51.5381 19.0511 52.7588 21.8994C53.9795 24.7477 54.5898 27.7995 54.5898 31.0547C54.5898 34.3099 53.9795 37.3535 52.7588 40.1855C51.5381 43.0176 49.8454 45.5159 47.6806 47.6806C45.516 49.8453 43.0176 51.5381 40.1855 52.7588C37.3535 53.9795 34.3099 54.5898 31.0547 54.5898C27.7995 54.5898 24.7477 53.9795 21.8994 52.7588C19.0511 51.5381 16.5446 49.8453 14.3798 47.6806C12.2152 45.5159 10.5306 43.0176 9.32614 40.1855C8.12174 37.3535 7.51954 34.3099 7.51954 31.0547Z" fill="white"/>
</svg>
