<svg width="104" height="72" viewBox="0 0 104 72" fill="none" xmlns="http://www.w3.org/2000/svg">
<path d="M12.4512 71.8261H76.5137C79.9967 71.8261 82.7067 70.8007 84.6436 68.75C86.5805 66.6992 87.5489 63.623 87.5489 59.5215V44.8242C86.7025 44.9869 85.6038 45.0764 84.253 45.0927C82.902 45.109 81.6569 45.0195 80.5176 44.8242V59.2285C80.5176 61.0514 80.0374 62.4267 79.0772 63.3545C78.1168 64.2822 76.7578 64.7461 75 64.7461H12.5489C10.791 64.7461 9.43195 64.2822 8.47168 63.3545C7.51141 62.4267 7.03128 61.0351 7.03128 59.1797V13.5254C7.03128 11.735 7.50328 10.3759 8.44728 9.44819C9.39128 8.52046 10.7422 8.05659 12.5 8.05659H20.0684C21.2728 8.05659 22.3063 8.23562 23.169 8.59369C24.0316 8.95176 24.9349 9.50516 25.8789 10.2539L28.3203 12.207C29.5573 13.2487 30.7943 13.9811 32.0313 14.4043C33.2682 14.8274 34.8144 15.039 36.6699 15.039H58.5449C58.7727 13.8021 59.0576 12.6221 59.3994 11.499C59.7412 10.3759 60.2213 9.21219 60.8399 8.00779H38.5254C37.321 8.00779 36.2874 7.82875 35.4248 7.47069C34.5622 7.11262 33.6589 6.55923 32.7149 5.81049L30.2735 3.85739C29.0039 2.81572 27.7588 2.08329 26.5381 1.66009C25.3174 1.23695 23.7793 1.02539 21.9239 1.02539H10.9864C7.53585 1.02539 4.84215 2.03449 2.90528 4.05269C0.968427 6.07089 0 9.11452 0 13.1836V59.5215C0 63.623 1.04166 66.6992 3.12498 68.75C5.20831 70.8007 8.31705 71.8261 12.4512 71.8261ZM4.29688 28.955H59.7656C59.375 27.9134 59.0495 26.8392 58.7891 25.7324C58.5287 24.6256 58.3496 23.5026 58.252 22.3633H4.29688V28.955Z" fill="#158DFF"/>
<path d="M83.5449 39.3554C87.0931 39.3554 90.3646 38.4602 93.3594 36.6699C96.3541 34.8795 98.7547 32.4951 100.561 29.5166C102.368 26.5381 103.271 23.2584 103.271 19.6777C103.271 16.0644 102.376 12.7685 100.586 9.79C98.7957 6.81146 96.4111 4.43516 93.4324 2.66109C90.4541 0.887028 87.1582 0 83.5449 0C79.9642 0 76.6846 0.887028 73.7061 2.66109C70.7276 4.43516 68.3431 6.81146 66.5528 9.79C64.7624 12.7685 63.8672 16.0644 63.8672 19.6777C63.8672 23.291 64.7624 26.5869 66.5528 29.5654C68.3431 32.5439 70.7276 34.9202 73.7061 36.6943C76.6846 38.4684 79.9642 39.3554 83.5449 39.3554ZM83.5938 34.3261C80.7292 34.3261 78.2796 33.7076 76.2451 32.4707C74.2106 31.2337 72.9655 29.9967 72.5098 28.7597V28.5644C73.1283 27.36 74.3734 26.237 76.2451 25.1953C78.1169 24.1536 80.5665 23.6328 83.5938 23.6328C86.5886 23.6328 89.0301 24.1536 90.9184 25.1953C92.8064 26.237 94.0594 27.36 94.6774 28.5644V28.7597C94.1894 29.9967 92.9364 31.2337 90.9184 32.4707C88.8999 33.7076 86.4583 34.3261 83.5938 34.3261ZM83.5938 20.6054C81.836 20.6054 80.363 19.9625 79.1748 18.6767C77.9867 17.3909 77.3926 15.7552 77.3926 13.7695C77.3926 11.9792 77.9948 10.4492 79.1992 9.1797C80.4037 7.91017 81.8685 7.2754 83.5938 7.2754C85.3191 7.2754 86.7839 7.91017 87.9883 9.1797C89.1927 10.4492 89.7949 11.9792 89.7949 13.7695C89.7949 15.7552 89.1927 17.3909 87.9883 18.6767C86.7839 19.9625 85.3191 20.6054 83.5938 20.6054Z" fill="#158DFF"/>
</svg>
