<svg width="69" height="88" viewBox="0 0 69 88" fill="none" xmlns="http://www.w3.org/2000/svg">
<path d="M12.4512 87.1094H56.25C60.4166 87.1094 63.5335 86.084 65.6006 84.0332C67.6677 81.9825 68.7012 78.9063 68.7012 74.8047V37.2559C68.7012 33.1543 67.6677 30.0782 65.6006 28.0274C63.5335 25.9766 60.4166 24.9512 56.25 24.9512H45.752V32.0313H56.1524C57.9102 32.0313 59.2692 32.4951 60.2295 33.4229C61.1897 34.3506 61.6699 35.7422 61.6699 37.5977V74.4629C61.6699 76.3184 61.1897 77.71 60.2295 78.6377C59.2692 79.5655 57.9102 80.0293 56.1524 80.0293H12.5489C10.791 80.0293 9.43195 79.5655 8.47168 78.6377C7.51141 77.71 7.03128 76.3184 7.03128 74.4629V37.5977C7.03128 35.7422 7.51141 34.3506 8.47168 33.4229C9.43195 32.4951 10.791 32.0313 12.5489 32.0313H22.9492V24.9512H12.4512C8.31705 24.9512 5.20831 25.9766 3.12498 28.0274C1.04166 30.0782 0 33.1543 0 37.2559V74.8047C0 78.9063 1.04166 81.9825 3.12498 84.0332C5.20831 86.084 8.31705 87.1094 12.4512 87.1094Z" fill="#CFCFCF"/>
<path d="M34.3262 56.8359C35.2702 56.8359 36.0921 56.5022 36.792 55.8349C37.4918 55.1676 37.8418 54.362 37.8418 53.4179V15.332L37.5489 9.4726L39.5996 11.7187L44.9707 17.5293C45.5566 18.2129 46.3379 18.5547 47.3145 18.5547C48.2259 18.5547 48.9909 18.2699 49.6094 17.7002C50.2278 17.1305 50.5371 16.4062 50.5371 15.5273C50.5371 14.681 50.179 13.916 49.4629 13.2324L36.8653 1.1718C36.4421 0.716132 36.027 0.406902 35.6201 0.244102C35.2132 0.0813691 34.7819 0 34.3262 0C33.903 0 33.4879 0.0813691 33.0811 0.244102C32.6741 0.406902 32.2428 0.716132 31.7871 1.1718L19.1895 13.2324C18.5059 13.916 18.1641 14.681 18.1641 15.5273C18.1641 16.4062 18.457 17.1305 19.043 17.7002C19.6289 18.2699 20.3939 18.5547 21.3379 18.5547C22.3145 18.5547 23.112 18.2129 23.7305 17.5293L29.1016 11.7187L31.1524 9.4726L30.8594 15.332V53.4179C30.8594 54.362 31.2093 55.1676 31.9092 55.8349C32.609 56.5022 33.4147 56.8359 34.3262 56.8359Z" fill="#CFCFCF"/>
</svg>
