<svg width="136" height="79" viewBox="0 0 136 79" fill="none" xmlns="http://www.w3.org/2000/svg">
<path d="M118.946 56.0247C119.222 56.0247 119.477 55.95 119.712 55.8006C119.947 55.6512 120.17 55.4387 120.381 55.1629L135.309 33.8603C135.698 33.3088 135.893 32.6309 135.893 31.8265C135.893 31.0223 135.702 30.3501 135.321 29.8101C134.94 29.27 134.466 29 133.899 29C133.364 29 132.886 29.2758 132.464 29.8273L118.946 49.0617L105.428 29.8273C105.007 29.2758 104.529 29 103.994 29C103.426 29 102.952 29.27 102.571 29.8101C102.19 30.3501 102 31.0223 102 31.8265C102 32.6309 102.195 33.3088 102.584 33.8603L117.512 55.1629C117.917 55.7374 118.395 56.0247 118.946 56.0247Z" fill="#CFCFCF"/>
<path d="M39.4043 78.8086C44.8079 78.8086 49.8861 77.7832 54.6387 75.7324C59.3913 73.6816 63.5824 70.8333 67.212 67.1875C70.8415 63.5416 73.6898 59.3424 75.7569 54.5898C77.8239 49.8372 78.8575 44.7754 78.8575 39.4043C78.8575 34.0332 77.8239 28.9714 75.7569 24.2187C73.6898 19.4661 70.8333 15.2669 67.1875 11.6211C63.5417 7.97523 59.3425 5.12694 54.5899 3.0762C49.8373 1.0254 44.7591 0 39.3555 0C33.9844 0 28.9226 1.0254 24.17 3.0762C19.4174 5.12694 15.2344 7.97523 11.6211 11.6211C8.00779 15.2669 5.16763 19.4661 3.10058 24.2187C1.03353 28.9714 0 34.0332 0 39.4043C0 44.7754 1.03353 49.8372 3.10058 54.5898C5.16763 59.3424 8.01593 63.5416 11.6455 67.1875C15.2751 70.8333 19.4662 73.6816 24.2188 75.7324C28.9714 77.7832 34.0332 78.8086 39.4043 78.8086ZM39.4043 71.3867C34.9772 71.3867 30.835 70.5648 26.9776 68.9209C23.1201 67.277 19.7347 64.9902 16.8213 62.0605C13.9079 59.1308 11.6292 55.7292 9.98536 51.8555C8.34149 47.9818 7.51956 43.8314 7.51956 39.4043C7.51956 34.9772 8.33336 30.8268 9.96096 26.9531C11.5886 23.0794 13.8591 19.6777 16.7725 16.748C19.6859 13.8183 23.0713 11.5316 26.9287 9.8877C30.7861 8.24384 34.9284 7.42191 39.3555 7.42191C43.8151 7.42191 47.9737 8.24384 51.8311 9.8877C55.6885 11.5316 59.082 13.8183 62.0118 16.748C64.9414 19.6777 67.2363 23.0794 68.8965 26.9531C70.5567 30.8268 71.3868 34.9772 71.3868 39.4043C71.3868 43.8314 70.5648 47.9818 68.9209 51.8555C67.277 55.7292 64.9984 59.1308 62.085 62.0605C59.1716 64.9902 55.778 67.277 51.9043 68.9209C48.0306 70.5648 43.8639 71.3867 39.4043 71.3867Z" fill="#CFCFCF"/>
<path d="M57.3731 45.2148C58.9682 45.2148 60.3272 44.6452 61.4502 43.5059C62.5733 42.3666 63.1348 40.9994 63.1348 39.4044C63.1348 37.8093 62.5733 36.4421 61.4502 35.3027C60.3272 34.1634 58.9682 33.5938 57.3731 33.5938C55.778 33.5938 54.4108 34.1634 53.2715 35.3027C52.1322 36.4421 51.5625 37.8093 51.5625 39.4044C51.5625 40.9994 52.1322 42.3666 53.2715 43.5059C54.4108 44.6452 55.778 45.2148 57.3731 45.2148ZM39.4043 45.2148C40.9994 45.2148 42.3584 44.6452 43.4815 43.5059C44.6046 42.3666 45.1661 40.9994 45.1661 39.4044C45.1661 37.8093 44.6046 36.4421 43.4815 35.3027C42.3584 34.1634 40.9994 33.5938 39.4043 33.5938C37.8093 33.5938 36.4421 34.1634 35.3028 35.3027C34.1635 36.4421 33.5938 37.8093 33.5938 39.4044C33.5938 40.9994 34.1635 42.3666 35.3028 43.5059C36.4421 44.6452 37.8093 45.2148 39.4043 45.2148ZM21.4356 45.2148C22.9981 45.2148 24.349 44.6452 25.4883 43.5059C26.6276 42.3666 27.1973 40.9994 27.1973 39.4044C27.1973 37.8093 26.6276 36.4421 25.4883 35.3027C24.349 34.1634 22.9981 33.5938 21.4356 33.5938C19.8405 33.5938 18.4733 34.1634 17.334 35.3027C16.1947 36.4421 15.625 37.8093 15.625 39.4044C15.625 40.9994 16.1947 42.3666 17.334 43.5059C18.4733 44.6452 19.8405 45.2148 21.4356 45.2148Z" fill="#CFCFCF"/>
</svg>
